<?xml version="1.0" encoding="UTF-8"?>
<svg width="16px" height="16px" viewBox="0 0 20 21" version="1.1" xmlns="http://www.w3.org/2000/svg" xmlns:xlink="http://www.w3.org/1999/xlink">
  <defs>
    <linearGradient x1="50%" y1="50%" x2="49.3388408%" y2="50%" id="linearGradient-1">
      <stop stop-color="#DCDDE1" offset="99.7070312%"></stop>
      <stop stop-color="#FC9F15" offset="99.7070312%"></stop>
    </linearGradient>
  </defs>
  <g id="02.Sikayet_Detay-Ç" stroke="none" stroke-width="1" fill="none" fill-rule="evenodd">
    <g id="02.00.00_SikayetDetay_D" transform="translate(-1241.000000, -155.000000)" fill="url(#linearGradient-1)">
      <g id="cont-[94v]" transform="translate(0.000000, 119.000000)">
        <g id="cont" transform="translate(157.000000, 0.000000)">
          <g id="sidebar-[15v]" transform="translate(765.000000, 0.000000)">
            <g id="block1">
              <g id="cont-[20v]" transform="translate(20.000000, 20.000000)">
                <g id="brand">
                  <g id="brand-rating" transform="translate(202.000000, 15.000000)">
                    <g id="stars" transform="translate(0.000000, -0.000000)">
                      <path d="M107.910062,1.99823629 L110.212709,7.05419158 C110.352923,7.36206008 110.639284,7.57816643 110.973803,7.62856154 L116.111684,8.40258001 C116.657806,8.48485299 117.033831,8.99426803 116.951558,9.54039037 C116.921234,9.74167849 116.830203,9.92891871 116.690628,10.0770921 L112.833011,14.1723661 C112.622747,14.3955839 112.526525,14.7029343 112.571961,15.0062042 L113.432129,20.7474808 C113.513959,21.2936696 113.137523,21.8027801 112.591334,21.884611 C112.369288,21.9178783 112.142507,21.8754525 111.947505,21.7641645 L107.495662,19.223499 C107.188473,19.0481866 106.811527,19.0481866 106.504338,19.223499 L102.052495,21.7641645 C101.572827,22.0379108 100.962064,21.8709784 100.688318,21.3913104 C100.57703,21.1963077 100.534604,20.9695267 100.567871,20.7474808 L101.428039,15.0062042 C101.473475,14.7029343 101.377253,14.3955839 101.166989,14.1723661 L97.3093719,10.0770921 C96.9306867,9.67507725 96.9495992,9.04219479 97.3516141,8.66350961 C97.4997875,8.52393497 97.6870278,8.43290394 97.8883159,8.40258001 L103.026197,7.62856154 C103.360716,7.57816643 103.647077,7.36206008 103.787291,7.05419158 L106.089938,1.99823629 C106.318844,1.49562288 106.911859,1.27373965 107.414472,1.50264621 C107.634046,1.60264725 107.810061,1.77866258 107.910062,1.99823629 Z" id="Path"></path>
                    </g>
                  </g>
                </g>
              </g>
            </g>
          </g>
        </g>
      </g>
    </g>
  </g>
</svg>
