<svg width="83" height="94" fill="none" xmlns="http://www.w3.org/2000/svg">
  <path fill-rule="evenodd" clip-rule="evenodd" d="M31.221 15.5H6A5.5 5.5 0 00.5 21v66.546a5.5 5.5 0 005.5 5.5h51a5.5 5.5 0 005.5-5.5V53.897a30.404 30.404 0 01-5 0v33.649a.5.5 0 01-.5.5H6a.5.5 0 01-.5-.5V21a.5.5 0 01.5-.5h24.202c.2-1.715.543-3.386 1.02-5zM12.636 51.318a2.5 2.5 0 012.5-2.5h20.728a2.5 2.5 0 010 5H15.136a2.5 2.5 0 01-2.5-2.5zm2.5 7.864a2.5 2.5 0 000 5h20.728a2.5 2.5 0 000-5H15.136zm-2.5 18.045a2.5 2.5 0 012.5-2.5h7.773a2.5 2.5 0 010 5h-7.773a2.5 2.5 0 01-2.5-2.5zM22.69 34a5.182 5.182 0 11-10.364 0 5.182 5.182 0 0110.364 0z" fill="#695DE9"/>
  <path d="M59.901 46.18c12.441 0 22.62-10.202 22.62-22.671 0-12.47-10.179-22.672-22.62-22.672-12.44 0-22.62 10.202-22.62 22.672S47.373 46.18 59.901 46.18zm0-40.634c9.831 0 17.922 8.022 17.922 17.963 0 9.853-8.09 17.963-17.922 17.963-9.918 0-17.922-8.022-17.922-17.963 0-9.94 8.004-17.963 17.922-17.963z" fill="#3AD08F"/>
  <path d="M55.813 30.049a2.374 2.374 0 001.654.697c.608 0 1.218-.261 1.653-.697l9.83-9.854c.957-.96.957-2.442 0-3.314-.957-.959-2.436-.959-3.306 0l-8.178 8.197-3.306-3.313c-.956-.96-2.435-.96-3.305 0-.957.959-.957 2.441 0 3.313l4.959 4.97z" fill="#3AD08F"/>
</svg>
