<svg width="63" height="80" fill="none" xmlns="http://www.w3.org/2000/svg">
  <path d="M20.77 51.171h21.878c1.098 0 1.989-.89 1.989-1.989V44.26c0-6.059-4.93-10.988-10.989-10.988H29.77c-6.059 0-10.988 4.93-10.988 10.988v4.922c0 1.099.89 1.99 1.989 1.99zm19.889-3.977h-17.9V44.26a7.018 7.018 0 017.011-7.01h3.878a7.019 7.019 0 017.011 7.01v2.934z" fill="#3AD08F"/>
  <path d="M31.709 35.26c4.386 0 7.955-3.568 7.955-7.955 0-4.386-3.569-7.955-7.955-7.955-4.387 0-7.956 3.569-7.956 7.955 0 4.387 3.57 7.956 7.956 7.956zm0-11.932a3.982 3.982 0 013.977 3.977 3.982 3.982 0 01-3.977 3.978 3.982 3.982 0 01-3.978-3.978 3.982 3.982 0 013.978-3.977z" fill="#3AD08F"/>
  <path d="M51.188 64.975c0 .75-.3 1.468-.833 1.998a2.853 2.853 0 01-2.011.827H14.219a2.853 2.853 0 01-2.011-.827 2.816 2.816 0 010-3.996 2.853 2.853 0 012.01-.827h34.126c.754 0 1.477.298 2.01.827.534.53.834 1.249.834 1.998zm11.374-56.5v62.15a8.447 8.447 0 01-2.498 5.993A8.56 8.56 0 0154.03 79.1h-45.5A8.56 8.56 0 012.5 76.618 8.447 8.447 0 010 70.625V8.475c0-2.248.899-4.403 2.499-5.993A8.56 8.56 0 018.53 0h45.5a8.56 8.56 0 016.033 2.482 8.447 8.447 0 012.498 5.993zm-5.687 0c0-.75-.3-1.468-.833-1.998a2.853 2.853 0 00-2.01-.827h-45.5c-.755 0-1.478.298-2.012.827a2.816 2.816 0 00-.832 1.998v62.15c0 .75.3 1.468.832 1.998.534.53 1.257.827 2.011.827h45.5c.755 0 1.478-.298 2.011-.827.533-.53.833-1.249.833-1.998V8.475z" fill="#695DE9"/>
</svg>
