<svg width="69" height="79" fill="none" xmlns="http://www.w3.org/2000/svg">
  <path d="M1.495 15.653c.494-.768 1.256-1.48 2.18-1.674l.114-.024c.121-.032.243-.057.364-.073 4.806-1.003 9.483-2.345 14.021-4.205a73.03 73.03 0 0011.881-6.453c.47-.315.932-.63 1.394-.962.227-.162.462-.324.69-.494a3.753 3.753 0 012.236-.743c.819-.017 1.678.032 2.383.493.502.331.98.728 1.475 1.075a65.5 65.5 0 005.884 3.728 70.418 70.418 0 006.653 3.275c4.693 1.933 9.564 3.34 14.54 4.383.292.122.583.243.867.364.421.226.77.542 1.021.938.495.639.786 1.383.786 2.208v9.881c0 3.324.008 6.648 0 9.963-.008 4.205-.713 8.499-2.155 12.461-.73 1.99-1.589 3.955-2.626 5.807-1.038 1.86-2.27 3.582-3.599 5.248-2.504 3.145-5.592 5.83-8.971 7.997-1.078.688-2.172 1.359-3.25 2.03-3.461 2.16-6.922 4.31-10.374 6.47-.081.048-.154.096-.235.145-1.086.68-2.594.655-3.68 0-3.112-1.884-6.216-3.769-9.328-5.653-1.475-.89-2.95-1.787-4.425-2.676-2.658-1.618-5.17-3.518-7.375-5.718-2.82-2.822-5.236-6.137-6.994-9.711-.932-1.9-1.743-3.882-2.359-5.904-.632-2.086-1.02-4.205-1.296-6.364-.26-1.98-.292-3.962-.292-5.96V29.36 17.764c-.057-.736.065-1.48.47-2.11zm4.87 5.572v14.911c0 1.682.025 3.348.244 5.014.235 1.811.56 3.598 1.086 5.353a33.571 33.571 0 001.985 4.965c1.476 3.008 3.51 5.79 5.876 8.168 1.856 1.852 3.963 3.445 6.2 4.803 1.24.744 2.48 1.504 3.72 2.248 2.618 1.585 5.228 3.17 7.845 4.755.916.55 2.18.574 3.096 0l.195-.121c2.901-1.812 5.81-3.623 8.72-5.434.908-.566 1.824-1.133 2.731-1.707 2.845-1.82 5.439-4.075 7.546-6.72 1.118-1.398 2.155-2.846 3.023-4.415.875-1.552 1.596-3.21 2.204-4.884 1.216-3.332 1.808-6.938 1.816-10.48.008-2.79 0-5.58 0-8.378v-8.305c0-.695-.244-1.318-.665-1.852a2.314 2.314 0 00-.86-.792c-.234-.105-.485-.202-.729-.307-4.173-.874-8.274-2.062-12.221-3.688a57.727 57.727 0 01-5.592-2.75 54.211 54.211 0 01-4.944-3.137c-.413-.29-.819-.622-1.24-.905-.592-.389-1.313-.429-2.002-.413a3.196 3.196 0 00-1.88.623c-.194.145-.389.275-.575.412a60.793 60.793 0 01-11.16 6.235C16.966 15.993 13.036 17.117 9 17.958c-.106.016-.203.04-.308.064-.033.009-.065.017-.098.017-.778.161-1.418.76-1.831 1.407-.349.533-.446 1.164-.397 1.779z" fill="#695DE9" stroke="#000" stroke-width=".25" stroke-miterlimit="10"/>
  <path d="M20.7 37.477l10.068 10.069M48.657 29.646l-17.9 17.9" stroke="#3AD08F" stroke-width="5" stroke-miterlimit="10" stroke-linecap="round"/>
</svg>
