<svg width="35" height="35" viewBox="0 0 35 35" fill="none" xmlns="http://www.w3.org/2000/svg">
  <path fill-rule="evenodd" clip-rule="evenodd"
    d="M17.5 0C7.83502 0 0 7.83502 0 17.5C0 27.165 7.83502 35 17.5 35C27.165 35 35 27.165 35 17.5C35 7.83502 27.165 0 17.5 0ZM13.6524 8.22307C14.648 8.17777 14.9661 8.16668 17.5009 8.16668H17.498C20.0336 8.16668 20.3505 8.17777 21.3461 8.22307C22.3397 8.26857 23.0183 8.42588 23.6133 8.65669C24.2278 8.89489 24.7469 9.21378 25.2661 9.73295C25.7853 10.2517 26.1042 10.7725 26.3433 11.3863C26.5728 11.9798 26.7303 12.658 26.777 13.6516C26.8217 14.6472 26.8334 14.9653 26.8334 17.5001C26.8334 20.0349 26.8217 20.3523 26.777 21.3478C26.7303 22.341 26.5728 23.0195 26.3433 23.6131C26.1042 24.2268 25.7853 24.7475 25.2661 25.2663C24.7475 25.7855 24.2276 26.1051 23.6139 26.3435C23.0201 26.5743 22.3411 26.7316 21.3474 26.7771C20.3519 26.8225 20.0347 26.8335 17.4997 26.8335C14.9651 26.8335 14.6472 26.8225 13.6516 26.7771C12.6582 26.7316 11.9798 26.5743 11.3859 26.3435C10.7725 26.1051 10.2517 25.7855 9.73314 25.2663C9.21417 24.7475 8.89527 24.2268 8.65669 23.6129C8.42607 23.0195 8.26877 22.3412 8.22307 21.3476C8.17796 20.3521 8.16668 20.0349 8.16668 17.5001C8.16668 14.9653 8.17835 14.647 8.22288 13.6514C8.2676 12.6582 8.4251 11.9798 8.65649 11.3861C8.89566 10.7725 9.21455 10.2517 9.73373 9.73295C10.2525 9.21397 10.7732 8.89508 11.3871 8.65669C11.9806 8.42588 12.6588 8.26857 13.6524 8.22307Z"
    fill="#7C7B85" />
  <path fill-rule="evenodd" clip-rule="evenodd"
    d="M16.6618 9.84852C16.8244 9.84827 16.9993 9.84835 17.188 9.84843L17.4991 9.84852C19.9911 9.84852 20.2865 9.85747 21.2706 9.90219C22.1806 9.9438 22.6745 10.0959 23.0035 10.2236C23.4391 10.3928 23.7496 10.595 24.0761 10.9217C24.4028 11.2483 24.605 11.5595 24.7745 11.995C24.9023 12.3236 25.0545 12.8175 25.096 13.7275C25.1407 14.7114 25.1504 15.007 25.1504 17.4979C25.1504 19.9887 25.1407 20.2843 25.096 21.2682C25.0543 22.1782 24.9023 22.6721 24.7745 23.0007C24.6054 23.4362 24.4028 23.7464 24.0761 24.0729C23.7494 24.3995 23.4393 24.6018 23.0035 24.7709C22.6749 24.8993 22.1806 25.0509 21.2706 25.0925C20.2867 25.1373 19.9911 25.147 17.4991 25.147C15.0069 25.147 14.7115 25.1373 13.7276 25.0925C12.8176 25.0505 12.3237 24.8985 11.9945 24.7707C11.559 24.6016 11.2479 24.3993 10.9212 24.0727C10.5945 23.746 10.3923 23.4357 10.2227 22.9999C10.095 22.6713 9.94274 22.1774 9.90132 21.2674C9.8566 20.2835 9.84766 19.9879 9.84766 17.4955C9.84766 15.0031 9.8566 14.7091 9.90132 13.7252C9.94294 12.8152 10.095 12.3213 10.2227 11.9923C10.3919 11.5567 10.5945 11.2456 10.9212 10.919C11.2479 10.5923 11.559 10.3901 11.9945 10.2205C12.3235 10.0922 12.8176 9.9405 13.7276 9.89869C14.5886 9.8598 14.9223 9.84814 16.6618 9.84619V9.84852ZM22.4812 11.3983C21.8629 11.3983 21.3612 11.8994 21.3612 12.5179C21.3612 13.1363 21.8629 13.6379 22.4812 13.6379C23.0996 13.6379 23.6012 13.1363 23.6012 12.5179C23.6012 11.8996 23.0996 11.3979 22.4812 11.3979V11.3983ZM12.706 17.5C12.706 14.853 14.8522 12.7068 17.4992 12.7068H17.499C20.146 12.7068 22.2915 14.853 22.2915 17.5C22.2915 20.147 20.1462 22.2921 17.4992 22.2921C14.8522 22.2921 12.706 20.147 12.706 17.5Z"
    fill="#7C7B85" />
  <path d="M17.5018 14.3892C19.2199 14.3892 20.6129 15.782 20.6129 17.5003C20.6129 19.2184 19.2199 20.6114 17.5018 20.6114C15.7834 20.6114 14.3906 19.2184 14.3906 17.5003C14.3906 15.782 15.7834 14.3892 17.5018 14.3892Z" fill="#7C7B85" />
</svg>