<svg width="36" height="35" viewBox="0 0 36 35" fill="none" xmlns="http://www.w3.org/2000/svg">
<path fill-rule="evenodd" clip-rule="evenodd" d="M18.168 0C8.50299 0 0.667969 7.83502 0.667969 17.5C0.667969 27.165 8.50299 35 18.168 35C27.833 35 35.668 27.165 35.668 17.5C35.668 7.83502 27.833 0 18.168 0ZM9.06911 14.4942H13.035V26.4101H9.06911V14.4942ZM13.2962 10.8082C13.2705 9.63988 12.435 8.75 11.0783 8.75C9.72161 8.75 8.83465 9.63988 8.83465 10.8082C8.83465 11.9524 9.6954 12.8679 11.0268 12.8679H11.0522C12.435 12.8679 13.2962 11.9524 13.2962 10.8082ZM22.7713 14.2144C25.381 14.2144 27.3375 15.9179 27.3375 19.5779L27.3373 26.4101H23.3716V20.0351C23.3716 18.4339 22.7977 17.3412 21.362 17.3412C20.2664 17.3412 19.6138 18.0778 19.3271 18.7893C19.2223 19.0442 19.1965 19.3995 19.1965 19.7556V26.4104H15.2302C15.2302 26.4104 15.2825 15.6127 15.2302 14.4946H19.1965V16.1823C19.7229 15.371 20.6656 14.2144 22.7713 14.2144Z" fill="#7C7B85" />
</svg>