<svg xmlns="http://www.w3.org/2000/svg" viewBox="0 0 2059.31 339.58"><g data-name="Layer 2"><g data-name="1"><path data-name="1" d="M195.93 46.07l-72.31 123A201.84 201.84 0 01135 186.18c2.27 3.66 4.44 7.38 6.6 11.11q4.5 7.72 8.93 15.5t9 15.84q3.42 6 6.83 12.09c3 5.3 7.51 12.17 13.53 14.27 2.44.86 5.77 1.4 8.32.32a115.25 115.25 0 0017.49-16c3.07-3.32 6.06-6.56 8.8-10.15q11.9-15.56 22.33-32.15c7-11.17 13.51-22.63 20.15-34l21.12-36.2q10.51-18 21-36l26.08-44.7s-114.82.32-129.25-.04z" fill="#10c5a8"/><path data-name="2" d="M0 148.61h92.5c22.88 0 34 18.71 44.47 35.67 2.27 3.66 4.44 7.39 6.6 11.11q4.5 7.74 8.93 15.51t9 15.83q3.42 6 6.83 12.1c3 5.3 7.51 12.16 13.53 14.27 3 1.06 7.41 1.64 10-.74-4.73 5.16-11.73 9.19-17.93 12.31a87.58 87.58 0 01-24.64 7.94c-15.61 2.68-32.13 2.47-47.48-1.59a95.53 95.53 0 01-11.21-3.71c-22.14-8.86-33.76-23.5-45.6-40.79A167.1 167.1 0 0135.58 211z" fill-rule="evenodd" fill="#03e4b5"/><path data-name="3" d="M271.39 170.68l45.34-77.43a30.88 30.88 0 019.88-9.71c6.45-3.84 13-5.81 18.94-5.66s34.66 0 34.66 0l-10.66 18c-6.77 11.43-11.82 22.86-18.59 34.28-6 10.09-11.54 22.05-20.45 30-16.24 14.32-39.04 10.52-59.12 10.52z" fill="#5551ff" fill-rule="evenodd"/><g><path d="M1277.15 77.37c-40.62 14.1-63.25 52.36-59 99.83 4.83 54.33 55 91.14 108 78.89 22.49-5.2 40.21-17.63 54-38.27-8-2.93-24.37-9.85-31.05-12.35l-8.95 7.76a54.74 54.74 0 01-84.46-19.87 53.16 53.16 0 01-3.75-11.56h142.35c0-8.45.13-15.71 0-23-1.29-59.58-60.81-100.96-117.14-81.43zm-23.52 70.47c4.1-24.63 26.63-42 52.95-41.7 25.88.3 48 18 51.5 41.7zm548.67-74c-42.12 7.36-71.53 42.73-72.74 88.42-1 36.14 12.32 65.62 44.31 84.08 31.08 17.93 69.42 12.54 99.88-6.3l.3 13.43h31.24s.91-47.41.94-51.77c.13-17.89.19-35.82-1.61-53.63-5.04-49.86-52.99-82.81-102.32-74.19zm71.06 93.65a73.71 73.71 0 01-1.56 15.33 54 54 0 01-3.83 11 55.05 55.05 0 01-5.74 9.44 56.86 56.86 0 01-7.14 7.81 57.54 57.54 0 01-8.07 6.1 52.55 52.55 0 01-8.47 4.28 55.6 55.6 0 01-61.33-13.75c-16.58-17.6-20.31-50.62-8.25-73.1 17.07-31.83 62.22-38.52 88-13.11 12.13 12 16.57 27.86 16.46 44.52-.05.52-.06.99-.07 1.52zM769.47 188.85a118.68 118.68 0 01-13.63-13.08 19.37 19.37 0 01-.92-23.91 73.18 73.18 0 019.21-10.24l66.55-64.95h-2.07c-8.44 0-16.89-.26-25.33-.1-4.72.09-9.56.09-14.1 1.55-5 1.58-8.52 5.13-12.3 8.54-8.52 7.66-16.68 15.69-25 23.58s-16.29 15.66-26.15 25.15V0h-31.87v253.5h32v-61.11c23.08 19.4 45 37.86 67 56.18 2.77 2.31 6.13 5.34 9.32 5.47 14 .6 32.37.47 46.39.47L837.94 246c-22.82-19.09-45.72-38-68.47-57.15zm736.37 32.61a63.2 63.2 0 01-27.39-6 52.28 52.28 0 01-17.51-13.75 43.14 43.14 0 01-9.16-19.95c-3.88-22.95-2.76-46.75-3.92-72h68v-33h-67.28v-66h-32.21V17c0 50.66-1 101.36.43 152 1.18 40.77 27.15 71.84 65 82a98.61 98.61 0 0042.41 2.26v-31.82c-6.13 0-12.21.09-18.37.02zm511.9-144.21c-42.15 2-77.75 31.18-82.31 72.86-3.69 33.67-1.08 69.29-1.23 103.35h31.37v-11.84c0-24.32-.17-48.65 0-73a71 71 0 013.09-20.52 55.07 55.07 0 018.54-16.75 51 51 0 0113.4-12.29 57.59 57.59 0 0117.68-7.27c9.81-2.29 19.88-1.77 29.87-1.83h21.14V77.15c-14.72 0-28.16-.53-41.55.1zM626.18 253.51h32v-176h-32zm-69.91-98.66a75.68 75.68 0 00-9.26-1.22c-6.51-.47-13-1.43-19.49-2.1q-5.12-.51-10.23-1.12c-15.65-1.91-43.75-1.13-42.86-24 .46-11.64 10.73-18.43 20.93-21.18 20.9-5.65 47.93-1.73 60.77 17.39.42.63 3.06 5.9 3.45 5.9h32.69a78.18 78.18 0 00-4.92-13.34 61.25 61.25 0 00-19.18-23.08c-9.91-7.17-21.57-11-33.57-13.25-35.6-6.7-91.6 3.35-91.2 49.76.17 21.19 15.06 39.85 35.85 44.07a174.14 174.14 0 0023.13 3.6c10.79.72 21.59 1.29 32.34 2.4 12 1.26 25 4.76 28.12 18.35 3.8 16.85-11.63 26.57-25.84 29.45-13.5 2.74-29.32 2.4-42.2-2.73-9.83-3.93-17.43-11.46-22.35-20.76l-1.62-3.28h-33.52A111.78 111.78 0 00448 222.05c13.31 20.76 37.77 30.73 62.92 32.46L505 265.35v.05h.08l6.81 11.12a10.89 10.89 0 11-5.3 9.34h-16a26.89 26.89 0 1034.58-25.79l3.08-5.69a109.8 109.8 0 0033.93-8c1-.4 1.9-.82 2.83-1.25 9.61-4.44 17.55-10.87 23-20.16 9-15.23 9.25-36.43-.76-51.19-7.33-10.78-18.71-16.49-30.98-18.93zm572.57 56a5.83 5.83 0 01-10.82.31l-57.53-132.85h-34.64l78.07 178.55a17.25 17.25 0 01-.22 14.27c-9.68 24.62-25.33 39.91-50.28 38.05v30.21c38 2.61 67-21.26 82.69-63l76-198h-34.65zM1687.66 78a8.76 8.76 0 00-3.68 3.84 33.23 33.23 0 00-2.1 5.86c-.75 2.45-1.44 4.92-2.15 7.39q-2.18 7.58-4.34 15.17-4.32 15.18-8.59 30.38l-8.55 30.36q-3.51 12.45-7 24.91c-1.75 6.15-3.38 12.51-6.33 18.1-4.11 7.79-11.06 11.64-18 11.42-6.89.22-13.84-3.63-18-11.42-3-5.59-4.58-12-6.32-18.1q-3.54-12.45-7-24.91-4.29-15.19-8.56-30.39t-8.59-30.38q-2.16-7.59-4.33-15.17c-.71-2.47-1.4-4.94-2.15-7.39a26.35 26.35 0 00-2.63-6.54c-1.14-1.81-3.34-4.15-5.67-4.23-9.38-.32-18.78-.13-28.19-.13 1.48 5.86 2.32 9.47 3.31 13 10.9 39 21.74 78.07 32.83 117 2.21 7.75 4.62 15.66 8.38 22.73 10.31 19.37 28.63 29.06 46.92 28.9 18.3.16 36.61-9.53 46.92-28.9 3.76-7.07 6.17-15 8.38-22.73 11.1-39 21.93-78 32.84-117 1-3.55 1.82-7.16 3.31-13h-24a16.07 16.07 0 00-6.71 1.23zm-773.53-3.66c-42.13 7.36-71.53 42.74-72.75 88.42-1 36.14 12.33 65.63 44.31 84.08 31.09 17.93 69.43 12.54 99.89-6.29l.3 13.42h31.23s.92-47.41.95-51.77c.12-17.88.18-35.82-1.61-53.63-5.04-49.9-52.99-82.85-102.32-74.23zM985.19 168a73.71 73.71 0 01-1.56 15.33 54.41 54.41 0 01-9.57 20.44 57.07 57.07 0 01-15.22 13.9 53.76 53.76 0 01-8.46 4.29 55.62 55.62 0 01-61.33-13.76c-16.58-17.6-20.31-50.62-8.25-73.1 17.06-31.83 62.22-38.52 88-13.11 12.13 12 16.56 27.87 16.45 44.52-.05.49-.05.98-.06 1.49zM642.22 2.45a20.21 20.21 0 1020.18 20.21 20.2 20.2 0 00-20.18-20.21z" fill="#191a58"/></g></g></g></svg>