<svg width="20" height="12" fill="none" xmlns="http://www.w3.org/2000/svg">
  <path fill-rule="evenodd" clip-rule="evenodd" d="M10 1a1 1 0 011-1h2a1 1 0 110 2h-2a1 1 0 01-1-1zm0 5a1 1 0 011-1h5a1 1 0 110 2h-5a1 1 0 01-1-1zm1 4a1 1 0 100 2h8a1 1 0 100-2h-8z" fill="#7C7B85"/>
  <path d="M6.206 7.082l-1.14 1.18v-7.17C5.066.482 4.602 0 4.011 0S2.955.48 2.955 1.093v7.17l-1.14-1.181a1.02 1.02 0 00-1.498 0 1.11 1.11 0 000 1.552l2.955 3.038c.21.219.485.328.739.328.253 0 .548-.11.738-.328l2.934-3.038c.423-.415.423-1.115 0-1.552-.4-.415-1.076-.437-1.477 0z" fill="#7C7B85"/>
</svg>
