<svg width="16" height="16" viewBox="0 0 16 16" fill="none" xmlns="http://www.w3.org/2000/svg">
  <path fill-rule="evenodd" clip-rule="evenodd" d="M8.20099 0.800184L9.9378 4.43213C10.0436 4.65329 10.2596 4.80853 10.5119 4.84473L14.3872 5.40075C14.7991 5.45985 15.0828 5.82578 15.0207 6.21809C14.9978 6.36269 14.9292 6.49719 14.8239 6.60363L11.9142 9.54547C11.7556 9.70582 11.683 9.92661 11.7173 10.1445L12.3661 14.2687C12.4278 14.6611 12.1439 15.0268 11.7319 15.0856C11.5644 15.1095 11.3934 15.079 11.2463 14.999L7.88842 13.174C7.65672 13.048 7.3724 13.048 7.1407 13.174L3.78281 14.999C3.42102 15.1957 2.96034 15.0758 2.75386 14.7312C2.66992 14.5911 2.63792 14.4282 2.66301 14.2687L3.31181 10.1445C3.34608 9.92661 3.2735 9.70582 3.11491 9.54547L0.205229 6.60363C-0.080401 6.31484 -0.0661359 5.86021 0.237091 5.58818C0.348853 5.48792 0.490083 5.42253 0.641908 5.40075L4.51725 4.84473C4.76956 4.80853 4.98556 4.65329 5.09131 4.43213L6.82813 0.800184C7.00078 0.439132 7.44807 0.279742 7.82718 0.444177C7.9928 0.516013 8.12556 0.642453 8.20099 0.800184Z" fill="#FC9F15" />
</svg>
