<svg width="36" height="35" viewBox="0 0 36 35" fill="none" xmlns="http://www.w3.org/2000/svg">
  <path fill-rule="evenodd" clip-rule="evenodd"
    d="M17.668 0C8.00299 0 0.167969 7.83502 0.167969 17.5C0.167969 27.165 8.00299 35 17.668 35C27.333 35 35.168 27.165 35.168 17.5C35.168 7.83502 27.333 0 17.668 0ZM17.9097 15.5589L17.873 14.9533C17.7629 13.3839 18.7299 11.9503 20.26 11.3942C20.8231 11.1965 21.7779 11.1718 22.4021 11.3448C22.647 11.419 23.1121 11.6661 23.4426 11.8886L24.0424 12.2964L24.7034 12.0863C25.0707 11.9751 25.5603 11.7897 25.7806 11.6661C25.9887 11.5549 26.1723 11.4931 26.1723 11.5302C26.1723 11.7403 25.7194 12.457 25.34 12.8525C24.8258 13.4086 24.9727 13.458 26.0132 13.0873C26.6375 12.8772 26.6497 12.8772 26.5273 13.112C26.4539 13.2356 26.0744 13.6681 25.6705 14.0636C24.985 14.7432 24.9483 14.8174 24.9483 15.3859C24.9483 16.2633 24.5321 18.0922 24.1159 19.0932C23.3447 20.9716 21.6922 22.9118 20.0397 23.8881C17.7139 25.2599 14.6169 25.6059 12.0096 24.8026C11.1405 24.5307 9.64715 23.8387 9.64715 23.7151C9.64715 23.678 10.1001 23.6286 10.6509 23.6162C11.8015 23.5915 12.9522 23.2702 13.9315 22.7018L14.5925 22.3063L13.8335 22.0468C12.7563 21.6761 11.7893 20.8234 11.5445 20.0201C11.471 19.7606 11.4955 19.7482 12.181 19.7482L12.891 19.7359L12.2912 19.4516C11.5812 19.0932 10.9324 18.4877 10.6142 17.8698C10.3816 17.4249 10.0878 16.3003 10.1735 16.2138C10.198 16.1768 10.455 16.2509 10.7488 16.3498C11.5934 16.6587 11.7036 16.5846 11.214 16.0655C10.2959 15.1263 10.0144 13.7299 10.455 12.4076L10.6631 11.8144L11.471 12.6177C13.1236 14.2366 15.0699 15.2005 17.2977 15.4847L17.9097 15.5589Z"
    fill="#7C7B85" />
</svg>