<svg width="36" height="35" viewBox="0 0 36 35" fill="none" xmlns="http://www.w3.org/2000/svg">
  <path fill-rule="evenodd" clip-rule="evenodd" d="M17.832 0C8.16705 0 0.332031 7.83502 0.332031 17.5C0.332031 27.165 8.16705 35 17.832 35C27.497 35 35.332 27.165 35.332 17.5C35.332 7.83502 27.497 0 17.832 0ZM25.1249 11.4839C25.9281 11.7043 26.5606 12.3537 26.7753 13.1784C27.1654 14.6731 27.1654 17.7917 27.1654 17.7917C27.1654 17.7917 27.1654 20.9102 26.7753 22.405C26.5606 23.2296 25.9281 23.8791 25.1249 24.0996C23.6693 24.5 17.832 24.5 17.832 24.5C17.832 24.5 11.9948 24.5 10.5391 24.0996C9.73591 23.8791 9.10336 23.2296 8.8887 22.405C8.49871 20.9102 8.49871 17.7917 8.49871 17.7917C8.49871 17.7917 8.49871 14.6731 8.8887 13.1784C9.10336 12.3537 9.73591 11.7043 10.5391 11.4839C11.9948 11.0833 17.832 11.0833 17.832 11.0833C17.832 11.0833 23.6693 11.0833 25.1249 11.4839Z" fill="#7C7B85" />
  <path d="M16.082 20.9998V15.1665L20.7487 18.0833L16.082 20.9998Z" fill="#7C7B85" />
</svg>